<?xml version="1.0" encoding="utf-8"?>
<!-- Generator: Adobe Illustrator 19.1.1, SVG Export Plug-In . SVG Version: 6.00 Build 0)  -->
<svg version="1.1" id="Layer_1" xmlns="http://www.w3.org/2000/svg" xmlns:xlink="http://www.w3.org/1999/xlink" x="0px" y="0px"
	 viewBox="0 0 40 40" style="enable-background:new 0 0 40 40;" xml:space="preserve">
<style type="text/css">
	.st0{fill:none;stroke:#414042;stroke-width:7;stroke-linecap:round;stroke-miterlimit:20;}
	.st1{fill:#FFFFFF;}
	.st2{fill:#414042;}
</style>
<g id="Rond_droit_contour">
	<g>
		<path class="st0" d="M8,8.8c5.9-5.9,15.6-6.5,22.2-1.1c6.9,5.7,7.9,15.8,2.1,22.5s-16.1,7.7-23,2c-0.9-0.7-1.7-1.5-2.4-2.4"/>
		<g>
			<g>
				<circle class="st1" cx="8.2" cy="8.5" r="7.1"/>
				<path class="st2" d="M15.1,12.8C17.4,9,16.3,4,12.5,1.7S3.7,0.5,1.4,4.3C-0.9,8.1,0.2,13,4,15.4S12.7,16.6,15.1,12.8
					C17.4,9,12.7,16.6,15.1,12.8z M3,5.3c1.8-2.9,5.6-3.8,8.5-2s3.8,5.6,2,8.5c-1.8,2.9-5.6,3.8-8.5,2S1.2,8.2,3,5.3
					C4.8,2.4,1.2,8.2,3,5.3z"/>
			</g>
		</g>
	</g>
</g>
</svg>
